<svg width="218" height="234" viewBox="0 0 218 234" fill="none" xmlns="http://www.w3.org/2000/svg">
<path d="M9.23957 224.957C8.80092 224.889 8.39361 224.689 8.07263 224.382C7.75165 224.076 7.53246 223.678 7.44468 223.243C6.97453 220.705 12.0752 209.666 12.0752 209.666C12.0752 209.666 9.34609 206.805 10.7761 201.429C11.3626 199.225 15.7776 189.853 18.8336 186.672C20.8831 184.538 24.588 182.462 27.6489 183.188C27.7713 183.217 26.8971 184.016 33.0225 176.778C39.7564 168.82 56.2631 155.278 70.1888 148.934C84.8026 142.276 109.44 136.813 131.284 140.688C160.399 145.861 179.308 162.682 191.451 175.599C196.309 175.531 200.492 179.365 203.694 183.017C208.746 188.771 213.359 195.557 213.677 203.208C213.904 205.412 213.34 207.625 212.086 209.452C213.537 212.946 214.773 216.525 215.789 220.169C215.884 220.533 215.903 220.912 215.848 221.284C215.792 221.656 215.662 222.013 215.465 222.334C215.268 222.654 215.009 222.932 214.702 223.15C214.396 223.368 214.048 223.522 213.681 223.603C198.03 227.072 116.997 242.893 9.23957 224.957Z" fill="white"/>
<path d="M203.719 190.565C203.119 191.039 211.549 202.473 206.799 202.96C206.73 201.361 206.312 199.796 205.575 198.374C204.215 195.545 198.351 187.957 196.951 186.407C195.713 184.9 194.031 183.823 192.144 183.329C192.959 178.726 199.368 185.507 199.873 184.798C200.089 184.476 195.63 179.261 192.61 180.368C190.896 180.961 189.794 183.268 190.741 185.929C192.253 190.2 201.995 202.012 202.617 202.627C204.223 204.135 205.934 205.172 207.991 204.433C213.937 201.387 204.193 190.184 203.719 190.565ZM199.679 196.245C197.842 193.898 192.373 187.234 192.099 184.259C195.208 185.285 197.175 188.828 200.367 193.026C202.57 196.015 205.318 199.192 205.788 202.799C203.607 201.988 201.395 198.345 199.685 196.245H199.679Z" fill="black"/>
<path d="M175.127 211.312C174.481 199.68 155.632 193.509 155.397 195.289C155.249 195.909 162.144 197.324 168.353 203.532C174.277 209.539 172.95 214.9 170.19 215.832C170.825 212.352 168.615 209.098 165.875 206.885C162.046 203.776 156.883 202.549 152.076 201.375C145.402 199.804 135.319 198.031 131.19 203.655C128.568 192.746 149.71 195.794 149.887 195.035C150.316 193.617 129.614 190.232 128.404 200.964C128.207 202.736 128.538 204.528 129.355 206.113C130.173 207.698 131.441 209.006 132.999 209.873C136.982 212.322 141.764 211.739 146.16 212.302C157.459 213.64 161.415 218.291 167.9 218.692C172.75 218.926 175.297 215.912 175.127 211.312ZM153.015 210.979C142.548 208.124 135.763 210.892 132.03 205.495C134.572 199.952 145.971 202.16 151.571 203.492C157.485 204.911 165.83 206.848 168.245 212.76C168.703 213.805 168.825 214.967 168.592 216.084C164.181 216.163 160.287 212.961 153.015 210.979V210.979Z" fill="black"/>
<path d="M124.383 167.529C121.584 162.487 113.059 163.192 113.225 164.037C113.254 164.368 114.887 164.322 117.249 165.042C119.967 165.899 123.469 167.818 122.734 170.589C122.211 172.721 122.477 170.979 117.891 169.099C111.493 166.438 101.474 167.431 98.4932 171.937C97.0999 169.282 99.1813 167.039 101.845 165.718C104.025 164.717 107.477 163.572 104.426 163.715C93.5921 164.351 93.8566 174.988 101.204 176.391C103.965 176.919 106.87 176.088 111.326 176.09C114.585 176.033 119.284 177.291 122.488 174.633C125.06 172.568 125.584 169.621 124.383 167.529ZM111.323 173.909C105.227 173.909 101.773 175.415 99.2596 172.958C101.702 169.435 112.85 167.087 121.491 172.61C118.945 175.042 115.23 173.883 111.323 173.909Z" fill="black"/>
<path d="M19.9932 196.89C17.4576 201.586 15.6933 205.574 15.1607 205.405C14.6709 205.248 15.6504 200.835 18.2767 195.962C20.9029 191.089 24.0801 187.861 24.4829 188.191C24.9126 188.55 22.53 192.195 19.9932 196.89Z" fill="black"/>
<path d="M81.5716 199.569C75.5955 191.929 61.5045 199.259 62.1522 200.275C62.4803 200.859 71.303 197.013 76.9117 199.116C80.1097 200.596 80.1893 202.223 78.8303 204.013C78.4471 204.519 77.0929 203.088 72.0964 203.145C63.346 203.216 53.976 208.213 49.5133 215.254C47.2152 214.211 46.8515 212.54 47.8971 210.234C50.0006 205.596 55.9546 202.408 55.6632 201.822C55.2298 200.801 43.8127 206.445 44.8889 213.519C45.7619 217.61 50.2381 218.87 54.7853 218.216C59.5541 217.485 87.2146 208.434 81.5716 199.569ZM51.078 215.692C57.0504 208.444 68.1821 203.667 77.4406 205.436C72.8787 209.409 56.7859 216.514 51.078 215.692Z" fill="black"/>
<path d="M154.7 182.775C152.786 180.791 153.219 178.821 154.888 178.458C157.309 178.338 159.704 179.011 161.708 180.375C163.789 181.722 168.032 184.806 161.115 181.439C157.185 179.525 154.742 180.152 155.134 180.136C155.134 180.136 155.126 180.119 155.143 180.216C155.067 182.398 167.048 188.485 165.35 184.39C164.564 182.743 165.309 183.324 165.915 184.03C167.27 185.604 165.814 189.686 157.278 184.587C156.334 184.113 155.465 183.502 154.7 182.775V182.775Z" fill="black"/>
<path d="M63.5164 178.067C60.4188 178.303 55.1039 180.322 56.8008 182.9C58.2798 185.076 62.4524 184.349 65.0566 183.768C72.3733 182.016 72.126 177.538 63.5164 178.067ZM68.7003 180.923C66.0532 182.778 54.5517 183.606 59.656 180.734C64.6832 177.904 71.6546 178.851 68.7003 180.923Z" fill="black"/>
<path d="M97.2959 191.079C92.5467 195.376 88.7537 193.161 89.3977 190.5C89.6425 189.477 91.1277 187.894 90.4029 189.766C90.274 189.991 90.2006 190.244 90.1887 190.503C90.1768 190.763 90.2267 191.021 90.3344 191.257C90.442 191.494 90.6042 191.701 90.8077 191.862C91.0112 192.024 91.2501 192.134 91.5048 192.185C93.1319 192.568 96.6923 190.14 96.9164 188.996C97.0645 187.834 97.0731 186.778 93.6621 187.885C87.5342 189.872 92.9275 186.857 94.8864 186.306C96.6715 185.938 98.1469 186.17 98.4089 187.979C98.5092 188.548 98.4593 189.133 98.2641 189.677C98.0689 190.221 97.7352 190.704 97.2959 191.079V191.079Z" fill="black"/>
<path d="M30.2227 215.461C28.1952 213.84 30.7272 210.824 33.4281 209.707C35.5633 208.825 36.3139 209.761 36.1559 209.856C35.3464 209.913 34.5673 210.188 33.9007 210.651C30.89 212.526 30.1052 214.995 32.1768 214.287C33.4553 213.755 34.5989 212.944 35.5242 211.913C35.813 211.665 36.0257 211.34 36.1375 210.976C36.2493 210.612 36.2557 210.224 36.1559 209.856C36.2784 209.525 37.6141 210.591 36.369 212.55C35.1238 214.509 32.0066 216.889 30.2227 215.461Z" fill="black"/>
<path d="M191.975 216.503C191.73 216.915 191.341 217.222 190.884 217.366C190.426 217.51 189.932 217.48 189.495 217.282C186.599 216.19 184.954 212.059 185.758 211.133C186.058 210.722 186.022 211.314 186.142 211.674C186.708 213.044 187.611 214.249 188.767 215.177C190.604 216.7 191.607 215.932 189.808 213.375C189.202 212.518 187.668 210.753 186.567 210.826C186.232 210.846 186.051 211.056 185.955 211.001C185.878 210.99 185.833 210.575 186.382 210.275C188.363 209.203 193.283 213.811 191.975 216.503Z" fill="black"/>
<path d="M121.994 207.405C120.798 204.121 121.064 201.917 121.231 201.928C121.696 201.873 122.578 211.866 131.796 215.519C135.829 217.119 140.14 217.122 144.457 217.938C147.825 218.575 149.728 219.621 149.638 219.8C149.544 220.03 147.587 219.403 144.29 219.074C137.817 218.43 126.289 219.186 121.994 207.405Z" fill="black"/>
<path d="M102.405 181.018C95.5365 180.251 91.9014 175.802 92.3495 175.455C92.7585 175.088 95.4471 178.731 102.576 179.535C108.004 180.147 113.84 179.055 113.921 179.657C113.985 180.146 107.343 181.571 102.405 181.018Z" fill="black"/>
<path d="M85.3941 209.556C80.722 215.019 71.1819 219.291 70.8464 218.501C70.626 217.981 79.2687 213.82 83.9469 208.33C86.9429 204.814 87.2453 201.659 85.688 198.208C84.7085 196.027 83.178 194.068 83.4266 193.857C83.7535 193.578 92.7463 200.96 85.3941 209.556Z" fill="black"/>
<path d="M157.037 188.998C153.092 187.028 150.718 183.792 151.065 183.488C151.411 183.185 153.881 185.742 157.704 187.662C161.528 189.582 165.06 189.949 165.041 190.391C165.019 190.907 160.99 190.973 157.037 188.998Z" fill="black"/>
<path d="M215.488 214.996C213.086 207.913 213.201 210.229 214.102 208.275C218.324 198.656 204.949 175.917 191.452 174.188C148.049 122.357 68.7784 127.296 27.6844 181.893C19.2205 179.735 9.38412 196.585 9.08906 204.242C9.06649 206.242 9.6612 208.2 10.7921 209.85C9.93998 211.809 9.13395 213.788 8.37404 215.787C6.93176 219.582 6.56568 222.917 7.26111 223.113C8.46831 223.457 11.0676 215.837 12.9176 211.528C18.2619 213.805 25.1427 205.02 24.1167 204.334C23.6184 204.001 17.0338 210.867 14.0244 209.212C7.90266 206.263 16.0238 191.377 20.1816 187.436C22.5079 185.177 26.9572 183.143 28.2623 185.14C30.3217 187.439 28.1803 196.6 28.801 196.841C29.472 197.122 31.3563 192.386 31.4616 188.415C61.5034 148.561 113.061 135.461 156.488 155.519C165.119 159.486 167.171 161.151 167.289 160.956C167.352 160.859 163.31 158.364 163.211 158.306C120.805 133.479 64.4798 143.408 31.2706 185.839C31.068 184.641 30.4429 183.555 29.5087 182.778C69.944 132.54 144.137 125.026 188.761 174.174C187.835 174.267 186.937 174.546 186.121 174.993C185.304 175.439 184.586 176.046 184.008 176.775C179.279 182.972 188.97 195.392 189.675 194.886C190.383 194.41 182.496 182.658 186.038 178.34C187.356 176.659 189.761 176.504 191.852 176.903C194.548 177.53 197.061 178.777 199.19 180.546C205.469 185.543 211.35 194.237 212.256 203.488C212.693 207.94 210.04 210.171 206.699 209.938C203.097 209.669 200.155 206.485 197.566 204.033C193.304 199.927 188.457 195.969 196.211 205.293C199.07 208.635 202.067 212.052 206.459 212.491C208.182 212.685 209.92 212.297 211.397 211.389C211.961 212.858 212.497 214.339 213.004 215.831C216.372 225.694 217.768 221.672 215.488 214.996Z" fill="black"/>
<path d="M54.8806 148.146C57.0281 146.043 60.6191 141.353 60.1208 138.409C59.5699 135.161 49.6294 125.44 39.4428 123.888C34.7719 117.87 22.9606 110.478 19.0807 108.926C15.6133 107.54 10.8567 107.003 8.09706 108.823C2.9046 112.251 4.85254 124.012 4.91375 126.664C5.06557 133.986 10.8482 143.793 10.6425 145.88C10.4858 147.48 8.4864 147.389 9.75605 153.303C10.5533 157.201 11.5753 161.05 12.8169 164.829C13.5001 166.843 14.4526 169.017 16.3932 169.886C19.2215 171.15 24.8535 169.582 27.7478 168.005C28.7445 167.463 29.244 167.386 30.0741 168.392C31.7062 170.383 33.6676 174.316 37.1031 174.046C38.0825 173.969 38.3274 173.443 38.2797 172.477C38.19 170.401 37.6388 168.371 36.666 166.535C37.8437 166.066 38.9078 165.351 39.7868 164.438C41.0589 165.716 45.2156 169.58 47.0484 169.711C48.8813 169.842 50.1424 167.701 49.9563 165.885C49.5622 164.097 48.8228 162.403 47.7794 160.899C47.0448 159.54 47.3411 159.612 50.2795 155.674C52.4417 158.58 53.3489 160.034 54.6872 160.752C55.19 161.056 55.777 161.191 56.3622 161.138C56.9474 161.084 57.5 160.844 57.939 160.454C59.5833 158.672 57.4493 155.21 54.4888 150.371C53.9281 149.459 53.944 149.055 54.8806 148.146Z" fill="#FDFE1F"/>
<path d="M18.4198 136.689C18.1936 138.691 18.6502 140.71 19.7156 142.42C20.781 144.129 22.3927 145.429 24.2894 146.108C25.5761 146.575 26.9651 146.687 28.31 146.431C29.6549 146.176 30.9061 145.563 31.9319 144.656C32.9576 143.749 33.7201 142.583 34.1389 141.28C34.5577 139.976 34.6175 138.584 34.3119 137.25C32.6051 129.203 20.0788 127.832 18.4198 136.689Z" fill="#FDFE1F"/>
<path d="M32.0123 142.882C30.8337 144.329 29.1333 145.255 27.278 145.46C25.4227 145.665 23.5612 145.133 22.095 143.978C18.826 141.616 18.9742 138.223 18.4734 138.251C18.1294 138.267 17.8612 142.341 21.1266 145.176C22.3568 146.289 23.8809 147.025 25.5174 147.296C27.1539 147.568 28.8339 147.363 30.3574 146.707C31.881 146.051 33.1839 144.97 34.1111 143.595C35.0383 142.219 35.5507 140.606 35.5873 138.948C35.64 133.547 30.7757 128.837 25.3359 129.705C21.4021 130.278 18.602 133.119 18.2971 135.662C18.1 136.994 18.3289 137.704 18.4587 137.702C18.6265 137.708 18.7036 136.994 19.1162 135.881C20.2818 132.529 25.3726 130.302 29.1436 132.128C33.0701 133.982 34.8515 139.331 32.0123 142.882Z" fill="black"/>
<path d="M28.5132 151.413C39.165 150.463 43.9106 138.043 36.5461 129.758C34.3887 127.305 31.3906 125.748 28.1426 125.396C24.8947 125.043 21.6324 125.92 18.9988 127.853C18.1908 128.34 17.5095 129.011 17.0104 129.812C17.0937 129.899 17.783 129.181 19.284 128.291C30.5639 121.578 41.6578 132.72 38.0912 142.685C35.4601 150.268 25.2833 153.011 18.6094 146.779C14.3915 142.89 14.5874 137.906 14.2238 137.935C13.9789 137.935 13.9116 143.436 17.9495 147.463C19.322 148.843 20.9765 149.911 22.7997 150.593C24.6229 151.274 26.5718 151.554 28.5132 151.413V151.413Z" fill="black"/>
<path d="M58.2407 133.48C53.2085 128.292 46.879 124.547 39.9098 122.632C33.9227 116.361 26.8151 111.265 18.9539 107.607C-0.880565 99.699 -0.191255 125.822 9.01706 144.846C7.96935 152.68 9.22343 160.651 12.6264 167.785C12.9372 168.726 13.4973 169.566 14.247 170.215C14.9968 170.863 15.9083 171.297 16.8847 171.469C20.6545 172.278 25.8408 170.634 29.3069 168.637C30.0416 169.554 32.3862 172.352 33.1906 173.149C36.882 176.81 40.184 173.499 38.8434 169.721C37.3742 165.558 36.2012 168.08 40.293 165.68C42.4222 168.013 44.9235 171.347 47.8754 170.423C48.62 170.167 49.2727 169.697 49.7517 169.072C50.2308 168.447 50.515 167.695 50.569 166.91C50.7795 164.776 49.6152 162.502 48.4178 160.285C47.8436 159.217 48.1264 160.468 50.3021 156.979C52.7642 159.971 53.8808 161.429 55.6439 161.802C56.3909 161.929 57.1582 161.758 57.7798 161.325C58.4014 160.891 58.8274 160.23 58.9655 159.485C59.4467 157.497 58.2052 155.186 57.0066 153.119C54.1783 148.27 54.0596 151.8 58.7072 145.426C63.4234 138.679 61.3297 136.671 58.2407 133.48ZM5.90722 125.936C7.79012 125.211 9.60344 124.316 11.325 123.264C13.0807 122.152 14.0185 121.255 13.8875 121.06C13.6928 120.757 12.133 121.721 5.67337 124.188C4.85673 117.121 5.76275 108.408 12.8652 108.753C16.2346 108.891 20.2504 110.924 23.1497 112.644C15.1363 119.911 14.8535 120.081 14.9809 120.282C15.1082 120.482 16.5333 119.865 18.5866 118.461C20.712 116.956 22.7471 115.328 24.6814 113.584C40.4399 123.557 49.2038 137.443 50.5592 145.05C48.6002 146.529 43.9134 150.391 42.0377 152.089C37.6582 149.497 33.8517 153.302 34.2741 157.166C32.0532 158.202 27.1227 160.767 24.9691 162.013C17.1345 156.209 8.40489 142.426 5.90722 125.936ZM15.6261 167.904C14.3258 166.026 10.9356 157.725 10.714 148.091C14.5731 154.948 21.416 163.85 29.138 166.499C25.7416 168.256 17.6034 170.759 15.6261 167.904ZM36.6053 168.198C37.1011 169.359 37.8798 170.978 37.4048 172.145C36.2857 174.894 33.4526 170.913 30.3709 167.982C32.1315 166.842 30.8888 167.189 33.4918 167.468C36.8587 167.806 35.9037 166.541 36.6053 168.198V168.198ZM33.6926 165.596C31.1356 165.245 28.6787 164.37 26.4763 163.025C29.3728 161.913 32.1266 160.46 34.6794 158.697C35.4348 160.516 37.0962 162.179 39.1091 164.381C37.4698 165.329 35.5797 165.753 33.6926 165.596V165.596ZM48.4717 166.661C48.2794 168.336 46.9461 169.144 45.019 167.509C43.3385 165.954 41.7564 164.295 40.282 162.542C37.99 160.057 33.9974 156.803 37.3056 153.63C37.7774 153.18 38.3749 152.885 39.0187 152.783C39.6626 152.681 40.3222 152.777 40.9101 153.059C43.4788 154.498 48.7692 164.026 48.4717 166.661V166.661ZM43.2584 153.007C46.0121 151.294 48.5465 149.252 50.8053 146.925C50.9834 148.952 50.7588 150.995 50.1444 152.935C49.53 154.876 48.5379 156.676 47.2253 158.231C46.1013 156.348 44.7707 154.596 43.2584 153.007V153.007ZM56.8633 156.481C58.0069 159.188 56.9025 160.34 55.9267 160.17C54.7513 159.991 53.7914 158.637 50.9228 155.884C51.4937 154.795 51.9413 153.645 52.2573 152.456C52.7948 151.966 53.3666 151.429 53.9592 150.849C55.0728 152.647 56.0439 154.53 56.8633 156.481V156.481ZM52.7997 149.267C53.4376 141.198 47.5203 131.714 42.4809 125.571C51.3134 129.649 58.8872 136.995 58.9166 138.866C58.6117 142.259 55.0378 146.637 52.7997 149.267Z" fill="black"/>
<path d="M145.014 77.9191C148.598 73.8101 148.581 74.5301 151.649 75.8242C162.842 80.5441 200.102 99.6316 200.225 99.699C206.797 103.482 209.73 103.852 206.878 110.585C203.94 117.529 196.03 132.931 191.369 138.691C189.199 141.14 187.287 143.806 185.666 146.649C183.159 151.401 176.484 154.737 178.52 155.608C186.906 159.186 188.813 162.77 191.05 170.284C191.166 170.674 191.128 170.838 190.723 171.072C189.268 171.915 185.825 173.636 184.403 172.729C183.225 171.976 182.889 169.315 180.567 166.087C179.215 164.335 177.418 162.978 175.363 162.157C173.308 161.336 171.071 161.081 168.884 161.418C164.844 162.319 166.743 162.31 127.256 184.027C116.29 190.058 113.544 188.824 110.513 194.952C108.107 199.815 108.032 205.413 104.53 206.697C103.111 207.217 99.9093 206.968 98.6531 205.675C96.5092 203.471 98.5502 195.709 99.4391 192.759C100.426 189.486 99.6766 190.406 102.816 187.573C105.25 185.376 102.149 183.722 64.8697 157.497C64.3201 157.204 63.6934 157.09 63.076 157.169C58.6267 166.912 64.7607 173.675 55.676 172.791C53.9277 172.622 53.4502 172.261 52.86 170.955C48.5822 161.423 52.8968 149.491 63.6343 143.774C69.0214 140.907 56.7375 147.85 109.441 120.504C123.374 113.283 127.425 98.0853 145.014 77.9191Z" fill="#FDFE1F"/>
<path d="M205.945 101.911C197.311 96.2708 186.383 91.9281 176.996 86.5826C169.753 82.3316 161.74 79.141 154.119 75.0921C146.521 71.0517 146.477 73.1833 125.63 102.273C114.599 117.715 112.15 117.118 92.4502 127.508C63.8359 142.392 58.3276 143.973 56.3503 148.146C49.3948 156.047 48.8377 168.435 51.9426 172.823C53.1351 174.437 54.8492 174.736 56.8523 174.537C64.873 173.583 60.3037 169.756 63.6131 158.548C72.5043 164.746 61.5256 155.977 102.009 186.464C97.8189 189.615 96.5799 195.576 96.1244 200.788C95.9494 203.825 96.1244 206.777 99.9689 208.066C103.211 209.197 106.809 207.833 107.941 205.201C108.912 202.942 109.796 195.651 114.933 191.006C117.785 190.246 120.539 189.153 123.136 187.749C125.159 186.733 153.775 171.018 167.91 162.562C169.434 162.286 170.998 162.322 172.508 162.665C174.017 163.009 175.442 163.654 176.696 164.562C183.163 169.301 180.369 177.599 189.471 173.745C191.75 172.782 192.82 171.786 192.165 169.227C190.433 162.755 186.325 157.106 179.864 154.856C190.596 145.59 207.638 113.33 209.501 107.436C210.449 104.388 207.77 103.176 205.945 101.911ZM59.3695 168.238C59.1687 171.238 59.4418 171.307 56.5535 171.58C55.6059 171.669 54.8982 171.667 54.3497 170.984C52.6038 168.517 52.5132 159.217 56.5437 152.318C58.0832 154.194 59.8632 155.86 61.8378 157.271C60.4132 160.765 59.5791 164.471 59.3695 168.238V168.238ZM107.442 197.901C106.006 201.321 105.613 203.411 105.317 203.997C104.536 205.822 100.713 206.079 99.4241 204.242C98.4813 203.148 98.7066 191.802 103.784 187.759C105.836 189.266 108.166 190.351 110.64 190.951C112.996 191.421 110.413 190.754 107.442 197.901ZM185.82 162.442C187.441 164.889 188.625 167.599 189.322 170.45C188.462 170.916 187.56 171.298 186.628 171.591C183.133 172.382 185.301 167.045 178.223 162.286C171.39 157.912 168.819 162.875 177.926 156.39C181.111 157.558 183.865 159.669 185.82 162.442V162.442ZM207.11 106.721C205.946 110.699 189.258 144.815 177.848 153.825C172.951 157.767 127.29 182.709 121.931 185.358C116.485 188.045 114.034 188.833 111.216 188.249C107.175 187.411 108.283 187.343 74.5882 162.322C69.1851 158.414 58.1231 152.194 58.9753 149.662C59.9976 146.724 68.5436 143.32 71.3204 141.927C122.356 115.358 115.44 122.269 135.966 92.5855C137.996 89.663 147.41 75.9418 150.183 76.4401C151.567 76.685 198.993 100.71 202.185 102.574C207.219 105.608 207.399 105.761 207.11 106.721V106.721Z" fill="black"/>
<path d="M194.169 92.4484C194.246 87.1527 193.238 81.8972 191.208 77.0054C189.178 72.1135 186.169 67.6887 182.365 64.0032C169.311 51.041 148.757 59.3739 148.757 59.3739L146.811 61.6879C146.811 61.6879 145.608 59.3739 140.516 60.4856C135.424 61.5973 127.582 73.4955 126.65 77.1563C125.353 82.2484 129.035 87.0576 129.035 87.0576C129.035 87.0576 128.625 86.9034 126.608 90.5997C124.592 94.296 127.911 105.01 127.911 105.01C127.911 105.01 122.034 95.8937 121.945 89.1709C121.919 87.1678 121.77 80.478 120.214 79.2279C119.862 78.6243 117.915 77.3057 118.828 73.0095C119.677 68.8467 123.562 68.7181 125.113 66.5474C125.661 65.6494 125.863 64.5832 125.683 63.5471C125.503 62.5111 124.952 61.5758 124.134 60.9154C118.379 56.542 113.453 65.0781 113.193 64.7047C111.597 62.2709 109.647 60.0881 107.408 58.2279C102.094 54.2304 97.4835 55.3446 96.351 57.4162C95.5013 58.927 96.6889 60.4685 97.6023 61.9585C92.5114 61.3023 87.03 62.5878 89.0122 66.4886C89.6318 67.7129 91.3728 67.888 95.4266 69.7625C91.7903 70.6049 87.9581 71.1693 88.4025 73.8996C89.109 77.6693 94.321 75.8818 99.0458 78.7455C99.9306 79.1647 100.656 79.8588 101.114 80.7243C101.572 81.5897 101.738 82.5801 101.586 83.5474C101.076 86.9266 99.9224 88.5452 102.95 92.326C105.362 95.2621 107.033 98.7347 107.823 102.451C108.328 105.98 113.496 114.676 113.496 114.676L105.554 120.517L97.3513 118.367C97.3513 118.367 99.1413 108.834 96.624 104.058C94.1067 99.2815 92.0523 96.5573 85.4261 95.5815C78.8 94.6057 75.7697 95.0673 75.8211 100.05C75.8725 105.033 76.7455 123.371 76.8483 126.864C76.9512 130.357 82.0873 131.538 84.1418 131.639C93.066 132.085 81.6392 130.101 81.3821 138.336C81.1948 144.344 80.4638 156.159 80.4638 156.159C76.9436 156.258 73.5414 157.45 70.7291 159.57C66.0459 163.112 65.446 169.176 67.7906 171.698C70.1353 174.22 89.8289 174.514 89.8289 174.514C89.8289 174.514 96.913 175.114 98.8952 172.232C100.877 169.35 100.815 160.345 100.815 160.345C100.815 160.345 108.62 168.39 114.804 169.711C120.989 171.032 131.975 165.749 137.078 162.687C142.181 159.625 162.893 141.675 162.893 141.675C162.893 141.675 175.801 142.694 181.924 139.632C188.047 136.57 191.83 130.327 191.77 125.104C191.735 121.959 191.413 118.824 190.809 115.738C198.571 106.798 197.188 94.6425 194.169 92.4484Z" fill="white"/>
<path d="M140.564 68.319C138.042 70.2722 135.66 72.3996 133.435 74.6856C131.311 77.2303 129.99 80.3478 129.638 83.6436C129.286 86.9394 129.919 90.2656 131.458 93.2014C132.083 94.3462 132.365 95.8178 133.103 96.894C137.603 103.448 143.117 109.639 150.979 110.852C157.002 111.778 164.216 109.882 168.055 105.147C169.246 103.678 170.014 102.246 171.257 100.819C175.993 95.3807 177.027 87.0405 169.859 76.7768C167.609 73.8975 164.997 71.3202 162.088 69.1087C156.089 63.9897 146.211 63.5991 144.564 64.226C142.544 64.9802 142.21 66.933 140.564 68.319Z" fill="#FDFE1F"/>
<path d="M106.316 156.962C113.635 167.407 123.579 163.172 123.8 163.925C124.304 164.79 112.271 169.465 104.467 158.25C97.0721 147.621 103.587 137.049 104.404 137.78C105.035 138.146 99.2637 146.905 106.316 156.962Z" fill="black"/>
<path d="M195.425 93.3728C197.047 90.1956 193.893 77.875 191.606 73.8077C183.927 60.155 171.929 54.8512 156.564 56.198C150.722 57.1774 148.594 57.5325 146.174 60.0253C139.715 56.9938 133.838 62.4617 129.555 68.2027C124.98 74.3244 122.642 81.084 127.313 87.1703C124.365 90.0059 124.488 93.6679 125.335 97.7425C121.27 85.8761 124.182 83.9747 122.396 79.845C121.539 77.8248 118.509 73.4417 122.189 70.7003C123.593 69.6401 126.088 68.7855 126.975 66.3319C129.01 60.406 120.335 53.8105 113.696 63.1841C105.365 48.247 92.1477 53.0551 94.1372 59.8685C87.0458 58.9772 83.4756 66.6233 89.3145 69.5189C88.5504 69.7586 87.866 70.2021 87.3349 70.8015C86.8038 71.401 86.4461 72.1338 86.3002 72.9213C85.8545 79.9111 95.1779 78.9329 97.9315 80.5882C101.673 82.7638 97.3977 85.5688 99.0665 89.3802C100.367 92.4962 102.798 92.0579 105.496 99.2032C107.322 104.067 107.909 107.754 112.123 114.156C109.516 115.231 107.119 116.755 105.039 118.659C102.693 117.898 100.304 117.274 97.885 116.791C100.124 108.862 98.0662 97.4462 88.9607 94.6914C85.6354 93.7413 77.8008 92.4399 75.4537 95.0587C73.862 96.8365 74.1192 97.1401 74.3187 109.77C74.4571 118.469 74.8354 122.25 75.2039 127.034C75.8345 130.921 78.6676 132.442 82.5904 132.911C75.6643 139.756 79.1782 155.879 77.9648 155.916C69.201 156.239 64.0416 162.954 64.9084 169.333C65.5989 176.035 76.6046 175.246 82.6614 175.804C99.6186 177.19 102.535 174.392 102.316 163.73C102.293 162.634 101.89 163.271 105.48 166.215C111.061 170.745 117.623 172.882 124.43 170.447C133.98 167.031 148.945 157.859 163.596 143.13C178.998 144.521 192.705 139.909 193.125 124.888C193.112 121.721 192.789 118.563 192.16 115.46C196.888 109.081 200.294 99.2742 195.425 93.3728ZM145.728 65.3389C149.033 63.8844 161.426 67.5636 169.643 79.3981C172.826 84.0078 174.795 88.3358 172.847 93.5577C170.196 100.912 164.084 108.74 156.335 109.83C147.234 111.3 133.767 102.036 130.776 87.076C131.388 85.0644 130.875 79.4924 138.501 71.9394C142.055 68.4573 143.7 67.7484 145.728 65.3389ZM127.539 79.3381C128.24 73.8604 137.16 60.0608 144.629 61.83C139.945 67.735 130.087 72.352 128.29 84.544C127.558 82.9131 127.298 81.1096 127.539 79.3381V79.3381ZM89.6525 64.3876C90.3614 63.1718 92.7133 62.4544 94.1275 62.6539C97.3524 63.2086 96.3386 63.4657 98.7237 64.7941C101.186 66.1409 103.273 67.3652 105.003 68.5198C100.407 72.341 103.932 72.4622 99.7778 70.7861C98.5229 70.3086 99.6774 70.6306 92.144 67.4387C91.2906 67.1997 90.5044 66.766 89.8471 66.1715C89.486 65.4956 89.3035 65.0133 89.6525 64.3876ZM102.732 89.7745C100.339 87.1311 102.44 86.11 102.495 83.0099C107.05 83.9062 110.828 82.1823 110.678 81.7354C110.51 81.1991 106.824 82.3672 102.23 81.1661C100.946 77.1771 94.949 76.2075 91.1058 75.5622C87.4866 73.9326 89.2766 71.3493 94.1666 71.3884C100.876 73.9253 101.246 73.4294 101.046 73.9853C100.624 75.1655 100.587 75.9577 100.801 76.0373C101.276 76.205 102.534 73.5776 104.896 71.0175C107.222 68.4231 109.716 66.9232 109.503 66.4653C109.405 66.2572 108.619 66.3674 107.484 66.9012C105.93 67.6248 108.291 67.5134 100.157 62.4446C93.6683 58.1838 98.3061 55.1793 103.233 56.8775C107.096 58.2034 110.139 61.8642 112.472 65.203C110.73 68.6532 110.635 71.4154 111.003 71.4068C111.31 71.4301 111.653 68.6128 114.21 65.083C118.803 58.8266 123.178 60.0632 124.529 62.8217C126.597 66.9343 121.073 67.2293 118.965 70.4787C118.373 71.3547 117.985 72.3525 117.831 73.3983C117.677 74.4442 117.759 75.5114 118.073 76.5209C117.754 77.2529 117.259 77.8944 116.631 78.388C114.634 79.8964 110.81 81.1453 110.97 81.6362C111.11 82.0807 116.886 80.9812 118.849 78.5154C119.933 80.8061 120.549 80.4621 120.424 84.3837C116.955 89.0472 107.79 91.644 102.732 89.7745ZM112.113 91.7934C115.286 91.058 118.174 89.4095 120.42 87.0515C120.503 89.7489 120.969 92.4207 121.805 94.9865C117.494 97.0492 112.955 98.598 108.282 99.6011C104.636 87.8081 101.906 94.4968 112.113 91.7934ZM108.563 100.519C113.346 99.945 117.962 98.3975 122.125 95.9721C122.467 96.9993 122.901 98.1759 123.338 99.235C118.947 101.347 114.323 102.935 109.562 103.968C109.233 102.876 108.916 101.722 108.559 100.519H108.563ZM99.0897 168.027C98.3551 175.022 88.4991 172.829 76.3169 172.544C73.5364 172.448 68.3243 172.035 67.5848 169.35C81.5289 170.884 94.5388 170.458 94.5339 169.898C94.529 169.339 83.3667 169.35 67.4416 167.523C67.4904 166.407 67.7156 165.305 68.1088 164.259C70.571 158.35 78.4852 156.312 84.209 158.394C87.4572 159.577 88.7048 161.325 88.9276 161.1C89.1725 160.894 86.6822 157.241 81.3502 156.193C81.3808 150.749 80.6584 140.558 83.9152 136.172C85.5986 133.906 88.6363 132.575 91.2527 133.669C98.7273 136.796 99.6493 163.025 99.0861 168.027H99.0897ZM150.839 140.946C150.8 141.533 160.123 142.754 160.766 142.832C150.596 151.593 135.88 162.911 123.413 167.55C115.454 170.515 108.016 166.097 102.193 159.921C100.479 119.56 86.13 133.509 79.4206 128.756C79.0845 128.534 78.8041 128.237 78.6009 127.889C78.3978 127.541 78.2773 127.151 78.2489 126.749C77.8816 121.994 77.5143 118.396 77.3772 109.709C77.1825 97.3862 77.0943 97.5417 77.8155 97.0618C78.587 96.7094 79.4258 96.5285 80.274 96.5316C81.0024 106.263 80.656 125.396 81.4922 125.376C81.9721 125.365 82.8022 106.557 82.0811 96.5586C84.1243 96.7026 86.1524 97.0126 88.1453 97.4854C96.9312 99.961 98.2633 113.202 94.5437 121.36C93.5312 123.483 92.7513 124.583 92.9337 124.738C93.2214 124.983 95.4265 122.657 96.772 119.798C105.279 121.424 114.403 124.899 120.135 131.531C125.181 137.297 133.236 155.895 134.716 155.03C135.097 154.812 133.94 151.913 132.038 147.225C131.632 146.222 131.455 146.781 135.501 149.183C140.853 152.321 140.989 151.55 136.412 147.877C129.188 141.853 130.167 142.565 128.432 139.02C124.103 130.223 119.699 124.387 108.309 119.837C110.186 118.81 111.909 117.522 113.426 116.012C114.321 117.221 117.188 120.637 117.546 120.313C117.984 119.931 113.653 115.352 110.257 106.145C109.446 103.852 109.385 105.837 116.766 103.329C127.072 99.8398 121.254 97.4989 127.339 106.835C130.569 111.753 137.002 119.462 144.275 122.996C147.789 124.674 149.944 124.979 149.981 124.832C150.226 124.098 140.885 122.035 133.539 111.148C130.81 107.121 128.724 101.72 129.359 102.767C132.257 107.895 136.584 112.068 141.813 114.778C149.441 118.696 159.783 119.56 166.923 115.373C169.49 113.791 171.748 111.756 173.588 109.366C172.684 113.113 172.579 117.221 174.944 120.224C170.121 122.904 164.808 124.586 159.321 125.168C154.391 125.612 151.317 124.777 151.209 125.202C151.013 125.633 158.711 129.168 170.587 124.97C170.503 125.886 170.233 126.776 169.796 127.586C168.859 129.36 152.715 129.178 152.687 130.057C152.655 131.117 164.433 131.25 167.41 130.791C168.482 132.994 170.071 134.905 172.042 136.362C174.012 137.819 176.304 138.778 178.725 139.158C167.907 142.849 150.938 139.345 150.836 140.946H150.839ZM180.761 138.352C178.248 138.075 175.83 137.234 173.687 135.892C171.545 134.549 169.733 132.74 168.388 130.599C169.362 130.425 170.279 130.013 171.056 129.399C175.093 133.147 180.444 135.152 185.95 134.979C184.415 136.379 182.661 137.518 180.757 138.352H180.761ZM186.883 134.017C181.363 133.943 176.021 132.06 171.675 128.656C172.061 127.985 172.323 127.251 172.45 126.488C173.12 122.877 171.313 125.252 177.064 122.036C181.237 124.328 186.318 121.931 189.843 118.228C190.512 123.972 190.639 129.737 186.877 134.017H186.883ZM195.62 100.821C194.983 107.922 187.391 120.142 180.326 119.846C171.914 119.494 176.3 100.267 187.493 92.5427C189.099 91.5081 190.242 91.4677 190.234 91.2155C190.32 90.8421 187.009 89.9789 181.388 95.4566C184.138 86.4246 180.503 80.5784 180.264 80.6898C179.33 81.0424 186.545 89.5981 173.555 106.451C168.404 113.101 163.601 116.332 154.804 115.989C136.878 115.388 126.729 97.9531 127.929 91.191C128.216 90.3907 128.713 89.6823 129.368 89.1402C133.447 107.658 156.357 123.573 171.182 102.401C177.973 92.4472 177.613 86.4259 171.663 77.9754C164.607 68.0668 153.811 62.949 147.526 63.1008C148.175 62.2471 148.969 61.5151 149.873 60.9386C152.262 60.5226 154.72 60.7839 156.968 61.6928C171.48 66.8522 179.815 80.4939 180.108 80.3543C181.354 79.9625 172.551 64.9349 157.685 59.6335C156.39 59.1829 156.416 59.3164 156.959 59.2245C174.08 57.7321 185.732 65.6254 190.661 79.3112C191.649 82.2668 193.045 89.1133 192.818 91.4151C192.818 91.5032 191.541 91.0674 191.478 91.3588C191.349 91.7714 196.346 93.2198 195.614 100.821H195.62Z" fill="black"/>
<path d="M73.1382 70.2596C71.5355 78.0795 71.538 77.9411 71.5637 78.0648C71.8086 79.2891 75.5612 74.6146 79.8133 74.1469C78.0137 76.3939 76.6176 78.9363 75.6873 81.6607L81.4417 80.5417C83.0762 80.2233 84.5846 80.7008 84.0606 81.3118C81.2978 83.3963 78.6798 85.6662 76.2248 88.1057C66.0431 98.0768 66.43 99.8472 64.809 102.101C63.9811 103.057 63.2073 104.059 62.4913 105.102C61.4432 106.969 61.1359 109.9 58.7044 108.961C56.4663 108.097 51.9937 107.393 51.8333 104.356C51.597 99.9267 58.7203 81.7868 73.1382 70.2596Z" fill="#FDFE1F"/>
<path d="M46.4597 105.107C45.0039 101.915 52.0476 104.437 52.6769 104.443C54.6359 104.454 55.1317 102.086 58.3738 100.606C60.1112 99.8129 59.8161 106.303 60.4638 107.234C60.689 107.508 60.9709 107.73 61.2902 107.885C62.7059 108.709 64.0537 109.644 65.3208 110.681C66.0933 111.314 65.8595 111.846 64.9926 112.304C61.469 114.163 60.0414 114.347 59.7488 114.68C59.5871 114.865 59.6655 114.722 58.0445 120.913C57.6196 122.538 54.6971 118.766 53.4911 117.397C53.2794 117.066 52.9672 116.812 52.6003 116.671C52.2334 116.531 51.8311 116.512 51.4526 116.617C50.6543 116.694 46.0495 117.147 45.5402 116.526C44.6587 115.454 48.6133 111.289 48.677 110.143C48.7431 109.042 46.4597 106.151 46.4597 105.107Z" fill="#FDFE1F"/>
<path d="M84.4931 80.8796C84.7294 80.2049 79.5186 79.201 75.9876 81.264C76.0733 81.1416 81.0637 73.4527 80.7356 73.1833C80.4662 72.5589 74.4216 75.3651 71.8431 78.1493C72.0182 77.6338 74.047 70.0686 73.447 69.88C73.2781 69.656 59.9792 77.6008 52.6576 97.745C51.959 99.5374 51.4661 101.403 51.1884 103.307C48.3345 102.664 46.6938 101.873 45.6788 103.46C44.8732 104.719 45.516 105.37 47.7982 110.317C45.0275 114.983 44.2574 115.652 45.0299 117.014C45.9298 118.594 47.2803 118.014 52.4091 117.408L55.9597 121.448C56.214 121.736 56.5436 121.947 56.9115 122.058C57.2793 122.169 57.6708 122.175 58.0418 122.075C58.4127 121.975 58.7485 121.774 59.0112 121.493C59.2739 121.213 59.4531 120.865 59.5287 120.488L60.5767 115.211L65.5194 113.084C65.8724 112.931 66.1758 112.684 66.3953 112.368C66.6148 112.052 66.7417 111.682 66.7615 111.298C66.7814 110.914 66.6935 110.532 66.5077 110.196C66.322 109.859 66.0458 109.581 65.7104 109.393L62.1047 107.376C72.3623 89.4145 85.0955 81.5909 84.4931 80.8796ZM64.835 111.481C58.7512 114.1 59.0634 113.903 59.0181 114.135C57.7607 120.54 57.8807 120.404 57.5122 120.404C57.0849 120.404 53.4008 115.526 52.9551 115.585C47.617 116.283 46.9558 116.31 46.8261 116.31C46.0351 116.31 46.7195 115.559 49.6874 110.555C49.8098 110.35 49.9077 110.708 47.1346 104.694C47.1094 104.641 47.0998 104.582 47.1068 104.523C47.1138 104.464 47.1372 104.409 47.1742 104.363C47.2112 104.317 47.2605 104.282 47.3162 104.263C47.372 104.244 47.4321 104.24 47.4897 104.254C52.0761 105.273 53.4167 105.61 53.5416 105.61C53.7216 105.61 53.4094 105.844 58.2578 101.362C58.3011 101.322 58.3547 101.295 58.4126 101.283C58.4705 101.272 58.5304 101.278 58.5854 101.299C58.6405 101.32 58.6885 101.356 58.7241 101.403C58.7596 101.45 58.7813 101.506 58.7867 101.565C59.4099 108.176 59.3071 107.802 59.514 107.917C64.1371 110.508 65.7043 111.107 64.835 111.481ZM60.982 106.355L60.5241 101.407C60.4778 100.895 60.2411 100.419 59.8609 100.074C59.4808 99.7279 58.9847 99.5374 58.4708 99.5398C57.3456 99.5398 57.1657 100.003 53.1229 103.742L52.6135 103.627C52.9271 101.798 53.4412 100.009 54.1464 98.2922C59.2152 85.0166 64.3085 79.2316 72.8018 70.6905C71.1759 73.9081 70.8429 78.8031 71.4391 78.8361C71.6509 79.1092 73.725 77.8395 76.2643 76.2919C80.4528 73.7135 79.0191 74.1469 77.2254 76.9714C75.6692 79.3993 75.095 81.717 75.4133 81.8223C75.5444 82.1541 77.5241 81.6044 79.9679 81.313C81.7187 81.0791 83.243 81.1293 83.9985 81.0534C78.5293 83.9306 67.6216 93.8919 60.982 106.355Z" fill="black"/>
<path d="M194.249 20.6722C192.514 17.6114 190.575 17.1657 187.48 16.0601C182.54 14.2934 178.587 12.987 174.202 14.0204C160.548 17.2379 153.592 37.436 160.622 45.9587C163.288 49.1934 173.923 52.5812 177.677 52.5812C190.356 52.5812 200.539 32.0146 194.249 20.6722Z" fill="#FDFE1F"/>
<path d="M194.89 20.3135C192.965 16.7629 190.099 16.2842 187.729 15.3623C184.178 14.0938 179.71 12.5365 175.944 12.9552C159.097 15.3782 152.76 38.5771 160.297 46.6798C162.791 49.8399 175.281 54.0663 179.131 53.1689C192.313 51.3911 200.964 31.4453 194.89 20.3135ZM187.82 23.8752C188.8 24.0539 190.164 24.2057 191.249 24.4873C192.439 24.7922 193.85 25.3884 194.811 25.6872C195.21 28.2303 195.151 30.8241 194.639 33.3467C189.395 32.901 190.606 32.5876 187.273 31.4832C187.873 28.9946 188.058 26.424 187.82 23.8752V23.8752ZM194.543 24.3037C190.082 23.8996 190.936 23.6242 187.58 22.3814C187.156 20.0043 185.966 17.8311 184.191 16.1936C183.546 15.6745 182.233 15.1443 187.153 16.949C190.005 18.0632 193.133 18.4146 194.543 24.3012V24.3037ZM158.713 39.8039C158.171 35.8631 158.639 31.8493 160.071 28.1384C161.504 24.4275 163.855 21.1408 166.904 18.586C177.923 9.40337 192.022 15.8704 185.078 35.1257C177.27 55.7327 160.352 50.6431 158.713 39.8015V39.8039ZM170.154 50.0333C172.65 49.981 175.089 49.2783 177.23 47.9948C179.066 48.7392 179.747 48.0511 183.434 49.9391C178.844 52.3633 175.586 51.7903 170.154 50.0309V50.0333ZM184.816 49.1175C181.794 48.3131 182.517 49.0747 178.485 47.0165C180.215 45.4949 181.722 43.7374 182.962 41.7959C185.446 42.4081 184.624 41.398 190.329 43.5284C188.867 45.7269 186.995 47.6235 184.816 49.1151V49.1175ZM191.092 42.3457C190.112 42.1951 188.535 42.1008 187.317 41.8082C186.099 41.5155 184.656 40.8581 183.718 40.5397C185.105 38.1236 186.183 35.5424 186.927 32.857C190.018 33.5916 187.805 32.4591 194.36 34.5906C193.651 37.3193 192.55 39.9307 191.092 42.3432V42.3457Z" fill="black"/>
<path d="M167.285 46.9443C173.296 49.0698 179.573 40.836 182.002 35.5358C185.619 27.5298 185.209 16.5768 176.525 16.3136C168.386 16.0491 163.008 27.4343 163.438 27.6241C163.702 27.7465 165.53 22.5259 171.04 18.7574C172.263 17.8974 173.69 17.3724 175.179 17.2345C176.667 17.0966 178.166 17.3506 179.527 17.9714C190.52 23.6389 174.555 54.1557 164.935 44.4001C158.409 38.0923 164.826 24.5216 162.959 28.4983C159.959 34.871 160.636 44.6585 167.285 46.9443Z" fill="black"/>
<path d="M168.908 32.4125L166.704 34.3103L168.772 42.1559C169.008 41.9624 168.066 42.7681 174.71 37.0357C174.75 37.0106 174.779 36.972 174.793 36.927C174.806 36.882 174.803 36.8336 174.784 36.7908C174.548 35.9215 174.07 34.1095 174.049 34.0446C173.633 34.4303 174.702 33.5022 170.364 37.2548C170.047 37.5266 170.383 37.4532 168.908 32.4125Z" fill="black"/>
<path d="M169.219 26.0582L169.976 28.9121C170.073 28.8301 172.578 26.6679 173.715 25.6811C173.884 25.5341 173.732 25.5684 175.106 30.5784L177.31 28.6807L175.249 20.8522L169.219 26.0582Z" fill="black"/>
<path d="M171.283 33.8879L173.492 31.9742L172.735 29.0921L170.523 31.0021L171.283 33.8879Z" fill="black"/>
<path d="M178.603 33.6271L177.862 30.7915L175.678 32.6794L176.428 35.515L178.603 33.6271Z" fill="black"/>
<path d="M167.528 27.4956C165.291 29.4239 165.362 29.2868 165.413 29.4717C166.182 32.3452 166.091 32.2754 166.228 32.1554C167.124 31.378 168.258 30.4071 168.346 30.3189C167.549 27.2948 167.651 27.3866 167.528 27.4956Z" fill="black"/>
<path d="M142.911 36.868C153.464 29.3162 147.588 0.735016 131.214 0.735016C127.013 1.05629 122.862 1.85523 118.842 3.11637C108.341 7.13101 108.748 35.5812 124.7 40.5814C128.954 41.9208 139.574 39.253 142.911 36.868Z" fill="#FDFE1F"/>
<path d="M133.755 0.2355C130.139 -0.517474 125.319 0.66647 121.686 1.56637C118.565 2.40259 116.359 2.73194 114.182 6.15522C107.036 17.3947 112.166 37.9356 125.015 41.4434C128.825 42.5747 137.928 40.2411 142.117 38.2368C154.073 32.5166 149.79 3.06986 133.755 0.2355ZM122.098 3.21923C127.935 1.72186 126.383 2.14915 125.489 2.7601C123.533 4.26137 122.077 6.31954 121.313 8.66391C117.941 9.52095 118.655 9.92743 114.285 9.83438C116.381 4.4644 118.889 4.0775 122.098 3.21923ZM113.814 11.1897C117.983 10.367 114.634 10.5923 120.85 10.1454C120.217 12.7372 119.989 15.4115 120.177 18.073C116.944 18.7574 117.932 19.2827 112.747 19.1394C112.656 16.4483 113.018 13.7609 113.817 11.1897H113.814ZM112.821 20.4262C113.792 20.223 115.078 19.8679 116.166 19.7283C117.547 19.552 119.326 19.6218 120.297 19.5067C120.594 22.3462 121.239 25.1383 122.219 27.82C121.263 28.0331 119.746 28.54 118.493 28.7077C117.281 28.8705 115.747 28.791 114.763 28.8301C113.719 26.1357 113.066 23.3057 112.824 20.4262H112.821ZM115.306 30.1194C121.125 28.6318 120.23 29.4974 122.76 29.1864C123.626 31.3286 124.821 33.3229 126.301 35.0976C122.008 36.7517 122.934 36.0587 119.769 36.5448C117.863 34.7257 116.345 32.5401 115.306 30.1194V30.1194ZM120.968 37.5475C121.752 37.2177 122.561 36.9516 123.388 36.7517C124.756 36.4725 127.438 36.4027 127.383 36.2044C129.238 37.8314 131.538 38.8667 133.986 39.1771C126.293 40.8275 123.874 39.7305 120.968 37.5414V37.5475ZM146.731 29.6627C145.824 32.6281 144.182 35.5653 141.377 36.8545C139.39 38.0004 137.111 38.5388 134.821 38.4033C120.118 37.0247 115.126 4.09219 130.645 1.63003C141.075 1.14029 150.891 15.1064 146.731 29.6566V29.6627Z" fill="black"/>
<path d="M144.33 17.8318C142.794 12.2953 147.479 27.4454 140.159 33.7483C132.283 40.7565 124.365 25.2171 124.888 14.5102C125.522 2.73929 136.642 -0.166082 142.806 13.8674C143.627 15.7749 143.908 16.9025 144 16.8781C143.873 15.7921 143.603 14.7275 143.198 13.7119C138.929 2.14793 129.962 1.55902 126.279 6.8984C121.344 13.8123 124.128 26.7096 130.497 33.8696C137.477 41.6944 147.945 30.9568 144.33 17.8318Z" fill="black"/>
<path d="M132.797 20.4862C133.416 20.7494 134.075 20.9059 134.746 20.949C136.426 20.949 138.052 18.9435 138.727 17.6151C138.904 17.2686 138.942 17.6004 138.258 15.9402C136.936 12.7794 135.328 9.74665 133.452 6.88004C131.938 10.7518 130.771 14.7509 129.966 18.8297C130.194 19.4516 130.407 19.7418 132.797 20.4862ZM133.641 9.5332C135.187 11.992 136.489 14.5969 137.527 17.3103C135.646 20.5719 134.343 19.7136 133.153 19.339C132.491 19.1514 131.846 18.9056 131.226 18.6044C131.803 15.5246 132.61 12.4924 133.641 9.5332V9.5332Z" fill="black"/>
<path d="M139.502 18.9974C134.386 23.1198 138.086 23.8164 129.801 20.7237C130.145 22.1742 130.752 23.5491 131.592 24.78C132.189 25.7901 135.928 31.9901 137.102 32.0465C139.361 31.9853 139.299 21.495 139.502 18.9974ZM138.121 23.2961C137.799 26.985 137.786 28.9734 136.998 30.5601C135.377 28.5467 133.915 26.4103 132.626 24.1702C130.972 21.3542 132.29 23.9046 135.49 23.8127C137.892 23.7527 138.39 20.2021 138.121 23.2961Z" fill="black"/>
<path d="M95.4396 44.9792C107.742 34.3507 96.1828 0.836609 76.0043 0.836609C70.0871 0.836609 58.8794 6.40617 58.2195 6.80041C53.4604 9.6311 51.9753 16.4323 51.963 21.9064C51.908 40.4895 66.2806 55.0225 77.2862 52.9816C83.2194 51.8662 92.1816 47.7903 95.4396 44.9792Z" fill="#FDFE1F"/>
<path d="M81.3829 0.979857C74.8486 -1.41742 68.051 1.5553 61.5656 4.40803C58.375 5.88459 55.3766 6.65838 53.125 11.8166C45.9503 28.726 60.0499 58.3246 80.0765 53.0636C84.7768 51.7719 92.2306 48.6829 96.2147 45.2351C106.974 35.9252 99.2449 5.99968 81.3829 0.979857ZM58.0162 8.74099C59.3508 7.59256 66.0712 4.78635 67.5943 4.19132C64.8949 6.57786 63.1376 9.85073 62.6394 13.4192C58.6456 15.208 59.5626 15.5912 54.0592 16.4213C54.482 13.4907 55.8753 10.7864 58.0162 8.74099V8.74099ZM53.7616 18.2285C58.7129 16.3319 54.6285 17.3102 62.3933 15.3806C62.1661 18.7794 62.4609 22.1928 63.2675 25.5023C59.3496 27.0707 60.6963 27.5127 54.1534 28.4628C53.45 25.0974 53.3175 21.6377 53.7616 18.2285V18.2285ZM54.5244 30.0667C55.7022 29.599 57.2437 28.8717 58.5819 28.4603C60.2801 27.9375 62.5353 27.6363 63.7242 27.2813C64.7177 30.7883 66.1379 34.16 67.953 37.3209C66.796 37.796 64.9987 38.7644 63.4597 39.2481C61.9684 39.7182 60.0205 39.9533 58.7913 40.2141C56.8921 37.0525 55.4553 33.6354 54.5244 30.0667V30.0667ZM59.7585 41.7139C61.0414 41.0743 62.3592 40.5073 63.7058 40.0157C65.4811 39.4574 67.8686 39.2383 68.9313 38.9138C70.4889 41.4205 72.4269 43.6695 74.6759 45.5804C69.6255 48.6008 70.6478 47.5222 66.7728 48.8237C63.979 46.9511 61.5931 44.5327 59.7585 41.7139V41.7139ZM68.4991 49.8313C69.4138 49.2454 70.3744 48.7344 71.3714 48.3033C73.1333 47.614 76.3913 46.9921 76.2786 46.7435C78.9652 48.3977 82.0897 49.1998 85.2408 49.0441C75.8795 52.8163 72.6068 51.9347 68.4991 49.8313ZM94.0255 44.5128C91.3467 46.3493 89.3326 47.6459 86.115 47.8895C79.2587 48.4245 74.7286 44.9645 70.8413 39.3534C56.809 18.9778 64.3657 -5.81405 84.8576 4.53046C101.705 14.3608 102.74 38.5281 94.0255 44.5066V44.5128Z" fill="black"/>
<path d="M93.5971 19.9377C92.3177 17.2306 93.6498 20.8327 94.1946 22.974C95.6308 28.7946 95.6026 36.2668 91.8169 40.8666C83.435 51.4022 70.0897 33.5867 68.4123 19.9891C66.6578 5.1206 79.9506 -1.12112 90.8179 15.2766C92.265 17.4975 92.8674 18.8553 92.9752 18.8051C92.5798 17.4657 92.0088 16.1845 91.277 14.995C83.3775 1.35695 71.969 2.60824 68.5041 10.1086C62.2955 23.4454 75.7633 43.9336 84.3374 45.2584C93.7294 46.8929 99.4887 32.4223 93.5971 19.9377Z" fill="black"/>
<path d="M83.6638 22.81C84.4532 22.0799 85.0233 21.1441 85.3101 20.1078C85.5968 19.0715 85.5888 17.9758 85.287 16.9438C84.9851 15.9118 84.4014 14.9844 83.6014 14.266C82.8014 13.5475 81.8168 13.0665 80.7584 12.8769C80.5662 10.9412 79.2966 9.8013 78.9611 10.0364C78.6354 10.2494 78.9611 11.2815 79.2807 12.4765C79.4129 12.9466 79.5463 12.5989 77.4441 12.7948C76.7965 9.49889 75.217 9.72417 76.0802 12.9932C75.5292 13.2014 74.9929 13.4468 74.4751 13.7278C75.0799 16.1251 77.1687 21.1302 78.1849 25.2366C79.2011 29.3431 80.1548 34.7596 81.0547 37.1128C82.8802 36.437 82.4725 36.4455 82.7333 37.2083C83.4251 39.2444 85.2432 40.3182 84.0421 36.7627C83.9552 36.5043 83.9332 36.5545 84.0874 36.5374C86.2913 36.2925 85.9166 35.8481 86.0856 36.4002C87.2046 39.9827 88.1339 38.3188 87.4079 35.9962C87.2414 35.4477 87.1887 35.6044 87.4507 35.4355C92.3224 32.3868 88.2649 24.5069 83.6638 22.81ZM77.6143 15.3415C79.3027 14.8272 80.8784 14.4073 82.3611 15.1848C83.0822 15.5522 83.6492 16.1639 83.9609 16.9107C84.2727 17.6575 84.3088 18.4908 84.063 19.2618C83.2402 21.6175 80.4144 21.8489 78.7824 22.2541C78.3208 19.8422 77.9547 17.3114 77.6143 15.339V15.3415ZM82.7162 33.9148C81.4235 31.1136 80.3299 28.2247 79.4435 25.2697C80.761 24.7926 82.1836 24.6834 83.5585 24.9538C88.4829 26.4818 91.6968 34.7498 82.7162 33.9148Z" fill="black"/>
<path d="M19.1422 29.7165C14.9464 31.1233 5.90703 37.3883 4.43782 39.2309C-5.11209 51.1548 11.6492 87.5412 33.4255 87.0796C37.9641 86.9841 47.3316 80.773 51.7282 76.287C64.9867 62.7543 41.1682 22.3288 19.1422 29.7165Z" fill="#FDFE1F"/>
<path d="M24.4313 61.9524C27.5779 66.5192 35.7345 75.0774 41.2441 75.4618C44.5498 75.692 46.8908 73.6033 48.2118 70.6147C53.1484 59.4486 41.233 42.5404 44.7396 47.4426C50.2173 55.0887 53.6271 69.285 46.3692 75.2145C43.8825 77.2445 40.0026 77.6081 35.8239 74.9795C18.1578 63.8697 9.44409 37.3136 22.8923 33.2855C33.4633 30.1194 44.3147 45.9991 43.8397 46.3224C43.5103 46.5476 39.5079 39.477 31.2032 35.2959C26.4699 32.9121 21.7194 34.194 19.6111 36.8643C14.8655 42.8734 19.6294 54.9859 24.4313 61.9524Z" fill="black"/>
<path d="M17.5848 29.5414C13.3291 31.7216 9.27313 34.2715 5.46379 37.1618C-6.61439 47.0006 7.19624 82.8875 29.532 87.6049C31.6405 87.9834 33.8051 87.9142 35.8852 87.4016C39.3329 86.3279 45.1633 83.1568 51.487 77.5701C52.542 76.6053 53.4393 75.4812 54.1463 74.2387C63.362 58.2181 39.4541 20.0258 17.5848 29.5414ZM9.21274 37.354C10.9954 36.0893 12.745 34.8527 14.508 33.7581C12.1624 37.0001 11.1043 40.9977 11.539 44.9756C7.88922 47.5651 8.79157 47.8161 3.55381 49.5436C3.23058 41.294 6.22656 39.4856 9.21274 37.354ZM3.68237 51.4573C4.79163 50.7728 6.32573 49.5987 7.68966 48.858C8.93482 48.1821 10.5644 47.5871 11.73 47.0619C12.3236 50.9345 13.469 54.7022 15.1312 58.2499C11.768 60.4317 12.7242 60.8835 6.64406 62.8339C5.08107 59.2154 4.08223 55.3786 3.68237 51.4573V51.4573ZM7.37622 64.4378C8.45977 63.7534 9.83471 62.7629 11.0725 62.1213C12.6642 61.2986 14.8533 60.608 15.9969 60.0399C17.8704 63.8045 20.1639 67.345 22.8336 70.5938C21.739 71.2501 20.1205 72.5075 18.6818 73.2653C17.302 73.9914 15.4496 74.5938 14.2742 75.1116C11.5263 71.8645 9.20797 68.277 7.37622 64.4378V64.4378ZM15.5279 76.5135C21.1122 72.3152 20.6163 73.6877 24.1461 72.1279C26.3553 74.6775 28.9206 76.8952 31.7628 78.7125C27.4665 82.6365 28.2856 81.3864 24.5293 83.4666C21.1214 81.728 18.0668 79.3701 15.5218 76.5135H15.5279ZM32.6688 85.4255C30.5355 85.4104 28.4217 85.0188 26.4246 84.2685C30.465 80.5331 31.5767 81.2444 33.6385 79.7152C36.7645 81.1509 40.2698 81.5416 43.6353 80.8293C40.9711 82.5667 35.8141 85.5504 32.6565 85.4255H32.6688ZM52.2792 73.1637C51.6627 74.1884 50.9 75.1176 50.0153 75.9222C47.4442 78.1419 46.6668 79.0504 43.5263 79.6442C36.2623 81.0546 30.989 77.3081 25.952 71.9651C15.5683 60.5162 5.97802 38.4988 19.4214 31.2078C38.2188 23.8605 61.4446 57.7247 52.2792 73.1637Z" fill="black"/>
<path d="M37.1448 56.3938C32.2743 59.7546 32.6465 59.7289 32.0246 59.4057C27.6071 57.1113 27.6622 57.2766 27.5385 56.9215C27.4149 56.5664 26.8039 57.1811 36.5852 50.3908C36.9526 50.1374 36.9268 50.2598 41.4031 52.5383C42.4107 53.0513 41.8365 53.1542 37.1448 56.3938Z" fill="black"/>
<path d="M25.7168 54.2818C25.4389 54.0467 25.5736 54.2818 24.9822 49.1873C24.9014 48.4919 24.3602 49.0649 34.106 42.4008C34.766 41.9502 34.7941 43.4366 34.87 44.121C35.2484 47.5491 35.4112 47.9005 35.0255 48.1613C25.2271 54.8511 25.9862 54.5096 25.7168 54.2818Z" fill="black"/>
<path d="M43.6096 55.5637C43.874 55.8086 43.7773 55.6359 44.3442 60.7549C44.4066 61.3157 44.9833 60.7402 35.1726 67.4607C34.8628 67.6725 34.6278 67.3383 34.5861 66.9599C34.0609 62.1458 33.9066 61.9401 34.2837 61.6867C44.152 54.894 43.3782 55.3531 43.6096 55.5637Z" fill="black"/>
<path d="M213.649 156.526L209.086 154.511C205.796 161.683 181.171 218.811 180.566 219.646C180.288 219.114 171.976 186.619 171.964 186.374C171.964 186.344 171.867 186.953 171.862 186.909C171.833 186.928 171.881 186.312 171.818 186.372C165.388 194.615 164.83 195.574 161.218 200.529C160.825 199.09 156.208 182.591 156.17 182.398C154.211 183.446 139.792 195.676 139.322 195.202C138.805 194.683 146.423 186.019 157.978 176.714C158.293 177.739 159.874 182.803 159.874 182.803C163.165 192.493 162.664 191.589 163.108 190.733L173.973 175.951L181.695 205.522C181.695 205.522 202.734 157.082 204.783 152.615L200.27 150.623C200.028 150.516 199.821 150.343 199.674 150.124C199.527 149.904 199.445 149.648 199.437 149.383C199.43 149.119 199.498 148.858 199.633 148.631C199.769 148.404 199.965 148.22 200.201 148.1L210.766 142.727C210.953 142.632 211.159 142.581 211.369 142.576C211.579 142.572 211.788 142.615 211.979 142.702C212.17 142.789 212.339 142.918 212.473 143.08C212.607 143.241 212.703 143.431 212.754 143.635L215.57 154.913C215.633 155.167 215.623 155.433 215.542 155.681C215.461 155.93 215.312 156.15 215.112 156.318C214.912 156.486 214.669 156.594 214.41 156.631C214.152 156.668 213.888 156.631 213.649 156.526Z" fill="#FDFE1F"/>
<path d="M211.398 142.572C212.867 142.572 212.562 142.869 215.569 154.91C215.632 155.163 215.623 155.43 215.543 155.678C215.462 155.927 215.313 156.148 215.113 156.317C214.913 156.485 214.67 156.594 214.411 156.631C214.153 156.668 213.889 156.631 213.649 156.526L209.086 154.511C205.798 161.683 181.171 218.811 180.566 219.646C180.248 219.034 172.012 186.372 171.818 186.372C163.567 197.091 167.025 192.563 161.218 200.529C160.825 199.09 156.208 182.592 156.17 182.398C154.369 183.361 139.764 195.645 139.322 195.202C138.381 194.26 150.772 182.804 153.01 180.821C153.236 180.62 156.748 177.706 157.978 176.715C158.293 177.74 159.874 182.804 159.874 182.804C163.167 192.507 162.664 191.589 163.108 190.734L173.973 175.953L181.695 205.523C181.695 205.523 202.734 157.083 204.783 152.617L200.27 150.625C200.028 150.518 199.821 150.345 199.674 150.125C199.527 149.906 199.445 149.649 199.438 149.385C199.43 149.12 199.498 148.859 199.633 148.632C199.769 148.405 199.966 148.221 200.201 148.101C211.688 142.256 210.924 142.572 211.398 142.572ZM211.398 140.516C210.229 140.516 210.504 140.552 199.269 146.265C198.687 146.561 198.201 147.016 197.867 147.577C197.533 148.138 197.365 148.783 197.383 149.436C197.401 150.088 197.604 150.723 197.968 151.265C198.332 151.807 198.842 152.235 199.44 152.499L202.047 153.651C200.324 157.432 184.481 193.916 182.189 199.216L174.867 171.263L163.402 186.799C160.695 178.672 161.688 181.789 159.052 173.209C152.935 177.963 147.163 183.146 141.78 188.719C137.626 193.157 136.219 194.994 137.862 196.648C140.159 198.959 142.734 195.204 154.913 185.824C155.157 186.682 160.361 205.189 160.361 205.189L170.95 190.819C179.632 224.591 177.76 218.715 180.276 223.523C182.932 219.886 183.221 219.789 184.983 215.105C186.389 211.359 209.905 157.663 210.11 157.211C212.901 158.444 213.265 158.704 214.215 158.704C214.739 158.703 215.256 158.583 215.726 158.353C216.197 158.123 216.609 157.789 216.931 157.376C217.253 156.963 217.478 156.482 217.587 155.97C217.696 155.458 217.687 154.927 217.561 154.419L214.745 143.141C214.561 142.393 214.131 141.727 213.524 141.251C212.918 140.775 212.169 140.517 211.398 140.516V140.516Z" fill="black"/>
</svg>
